<?xml version="1.0" standalone="no"?>
<!DOCTYPE svg PUBLIC "-//W3C//DTD SVG 20010904//EN"
 "http://www.w3.org/TR/2001/REC-SVG-20010904/DTD/svg10.dtd">
<svg version="1.0" xmlns="http://www.w3.org/2000/svg"
 width="121.000000pt" height="113.000000pt" viewBox="0 0 121.000000 113.000000"
 preserveAspectRatio="xMidYMid meet">

<g transform="translate(0.000000,113.000000) scale(0.100000,-0.100000)"
fill="#fff" stroke="none">
<path d="M0 565 l0 -565 605 0 605 0 0 565 0 565 -605 0 -605 0 0 -565z m549
461 c18 -21 4 -41 -88 -129 -75 -71 -84 -77 -123 -77 l-43 0 111 110 c61 61
115 110 121 110 6 0 16 -6 22 -14z m255 -96 l111 -110 -235 0 -235 0 111 110
c61 61 117 110 124 110 7 0 63 -49 124 -110z m70 -173 c69 -3 101 -8 107 -18
5 -8 9 -44 9 -80 l0 -67 -167 -4 c-199 -4 -234 -15 -264 -82 -24 -53 -24 -80
2 -134 35 -71 75 -83 270 -85 l159 -2 0 -66 c0 -112 32 -104 -409 -104 -325 0
-382 2 -395 15 -9 10 -16 50 -21 114 -3 55 -10 107 -14 115 -10 20 -6 124 8
211 6 36 11 85 11 110 1 77 -8 74 247 80 125 3 257 4 293 3 36 -2 109 -4 164
-6z m196 -317 l0 -100 -205 0 -205 0 -31 28 c-61 54 -33 156 45 164 17 2 113
5 214 6 l182 3 0 -101z"/>
<path d="M651 474 c-25 -32 -26 -43 -5 -72 30 -43 104 -17 104 36 0 27 -33 62
-59 62 -11 0 -29 -12 -40 -26z m50 -37 c-13 -13 -26 -3 -16 12 3 6 11 8 17 5
6 -4 6 -10 -1 -17z"/>
</g>
</svg>
